<?xml version="1.0" standalone="no"?><!DOCTYPE svg PUBLIC "-//W3C//DTD SVG 1.1//EN" "http://www.w3.org/Graphics/SVG/1.1/DTD/svg11.dtd"><svg t="1683788288633" class="icon" viewBox="0 0 1024 1024" version="1.1" xmlns="http://www.w3.org/2000/svg" p-id="6529" xmlns:xlink="http://www.w3.org/1999/xlink" width="200" height="200"><path d="M85.333333 512c0 235.52 191.146667 426.666667 426.666667 426.666667s426.666667-191.146667 426.666667-426.666667S747.52 85.333333 512 85.333333 85.333333 276.48 85.333333 512z" fill="#F5222D" p-id="6530"></path><path d="M242.773333 721.066667L721.066667 242.773333A337.152 337.152 0 0 0 512 170.666667c-188.586667 0-341.333333 152.746667-341.333333 341.333333 0 78.933333 26.88 151.466667 72.106666 209.066667zM853.333333 512c0-78.933333-26.88-151.466667-72.106666-209.066667L302.933333 781.226667A337.152 337.152 0 0 0 512 853.333333c188.586667 0 341.333333-152.746667 341.333333-341.333333z" fill="#FFFFFF" p-id="6531"></path></svg>